<svg aria-hidden="true" style="position: absolute; width: 0; height: 0; overflow: hidden;" version="1.1" xmlns="http://www.w3.org/2000/svg" xmlns:xlink="http://www.w3.org/1999/xlink">
<defs>
<symbol id="search" viewBox="0 0 32 32">
<path fill="#575757" style="fill: var(--color1, #575757)" d="M25.253 23.026l6.747 6.745-2.229 2.229-6.745-6.747c-2.51 2.012-5.632 3.106-8.848 3.102-7.826 0-14.177-6.352-14.177-14.177s6.351-14.177 14.177-14.177c7.826 0 14.177 6.351 14.177 14.177 0.004 3.217-1.090 6.338-3.102 8.848zM22.093 21.857c1.999-2.056 3.116-4.812 3.111-7.679 0-6.093-4.935-11.027-11.027-11.027-6.093 0-11.027 4.934-11.027 11.027 0 6.092 4.934 11.027 11.027 11.027 2.868 0.004 5.624-1.112 7.679-3.111l0.236-0.236z"></path>
</symbol>
<symbol id="icon-home" viewBox="0 0 32 32">
<path fill='#000000' d="M32 18.451l-16-12.42-16 12.42v-5.064l16-12.42 16 12.42zM28 18v12h-8v-8h-8v8h-8v-12l12-9z"></path>
</symbol>
</defs>
</svg>
